<svg width="81" height="61" viewBox="0 0 81 61" fill="none" xmlns="http://www.w3.org/2000/svg">
<path d="M64.9217 33.6282L42.0577 10.8298C43.1474 8.17254 44.8709 5.82613 47.0759 3.99776C49.2809 2.16939 51.8995 0.915353 54.7006 0.346371C57.5017 -0.22261 60.399 -0.088994 63.1366 0.73539C65.8742 1.55977 68.3678 3.04954 70.3972 5.07317C72.4266 7.0968 73.9294 9.59198 74.7728 12.3383C75.6163 15.0847 75.7744 17.9977 75.2332 20.8201C74.692 23.6425 73.4681 26.2874 71.6698 28.5212C69.8714 30.755 67.5538 32.509 64.9217 33.6282Z" fill="#F7C948"/>
<path d="M66.7724 61H18.4881C13.5562 60.9162 8.8545 58.8902 5.39624 55.3584C1.93797 51.8267 0 47.072 0 42.1191C0 37.1661 1.93797 32.4114 5.39624 28.8797C8.8545 25.3479 13.5562 23.3219 18.4881 23.2381H22.1808C24.0126 19.3429 26.9052 16.0481 30.5242 13.7348C34.1431 11.4216 38.3403 10.1845 42.6302 10.1667C48.4634 10.2203 54.0574 12.5025 58.2748 16.5493C62.4922 20.5961 65.0167 26.1036 65.3348 31.9524H66.7724C70.5672 32.0152 74.1855 33.573 76.847 36.2899C79.5085 39.0068 81 42.6652 81 46.4762C81 50.2872 79.5085 53.9455 76.847 56.6625C74.1855 59.3794 70.5672 60.9372 66.7724 61Z" fill="#4C63B6"/>
</svg>
