<svg width="81" height="60" viewBox="0 0 81 60" fill="none" xmlns="http://www.w3.org/2000/svg">
<path d="M64.9215 33.0769L42.0576 10.6522C43.1473 8.03856 44.8708 5.73062 47.0758 3.93222C49.2808 2.13383 51.8994 0.900347 54.7005 0.340693C57.5016 -0.218961 60.3989 -0.0875351 63.1364 0.723334C65.874 1.5342 68.3676 2.99955 70.3971 4.99C72.4265 6.98046 73.9293 9.43474 74.7727 12.1361C75.6161 14.8374 75.7743 17.7027 75.2331 20.4788C74.6919 23.2549 73.468 25.8565 71.6696 28.0536C69.8712 30.2508 67.5536 31.976 64.9215 33.0769Z" fill="#616E7C"/>
<path d="M66.7724 60H18.4881C13.5562 59.9176 8.8545 57.9248 5.39623 54.4509C1.93797 50.977 0 46.3003 0 41.4286C0 36.5568 1.93797 31.8801 5.39623 28.4062C8.8545 24.9324 13.5562 22.9395 18.4881 22.8571H22.1808C24.0126 19.0258 26.9053 15.785 30.5242 13.5097C34.1431 11.2343 38.3403 10.0175 42.6302 10C48.4634 10.0528 54.0574 12.2976 58.2748 16.278C62.4922 20.2584 65.0166 25.6757 65.3348 31.4286H66.7724C70.5672 31.4904 74.1854 33.0226 76.8469 35.695C79.5084 38.3674 81 41.9658 81 45.7143C81 49.4628 79.5084 53.0612 76.8469 55.7336C74.1854 58.4059 70.5672 59.9382 66.7724 60Z" fill="#4C63B6"/>
</svg>
