<svg width="84" height="52" viewBox="0 0 84 52" fill="none" xmlns="http://www.w3.org/2000/svg">
<path d="M69.2454 52H19.1729C14.0583 51.9143 9.18244 49.8417 5.59609 46.2289C2.00974 42.6161 0 37.7523 0 32.6857C0 27.6191 2.00974 22.7553 5.59609 19.1425C9.18244 15.5297 14.0583 13.4571 19.1729 13.3714H23.0023C24.9019 9.38682 27.9017 6.01636 31.6547 3.65004C35.4076 1.28371 39.7603 0.0182354 44.2091 0C50.2584 0.0549054 56.0595 2.38947 60.4331 6.52911C64.8068 10.6687 67.4246 16.3027 67.7546 22.2857H69.2454C73.1808 22.35 76.933 23.9436 79.6931 26.7228C82.4532 29.5021 84 33.2444 84 37.1429C84 41.0413 82.4532 44.7836 79.6931 47.5629C76.933 50.3422 73.1808 51.9357 69.2454 52Z" fill="#4C63B6"/>
</svg>
