<svg width="94" height="84" viewBox="0 0 94 84" fill="none" xmlns="http://www.w3.org/2000/svg">
<path d="M65.8639 36.0769L43 13.6522C44.0897 11.0386 45.8132 8.73062 48.0182 6.93222C50.2232 5.13383 52.8418 3.90035 55.6429 3.34069C58.444 2.78104 61.3413 2.91246 64.0788 3.72333C66.8164 4.5342 69.31 5.99955 71.3395 7.99C73.3689 9.98046 74.8717 12.4347 75.7151 15.1361C76.5585 17.8374 76.7166 20.7027 76.1754 23.4788C75.6342 26.2549 74.4104 28.8565 72.612 31.0536C70.8136 33.2508 68.496 34.976 65.8639 36.0769Z" fill="#616E7C"/>
<path d="M19.1728 63.5244C14.0582 63.4378 9.1824 61.3444 5.59605 57.6951C2.0097 54.0459 0 49.133 0 44.0153C0 38.8976 2.0097 33.9848 5.59605 30.3355C9.1824 26.6863 14.0582 24.5928 19.1728 24.5063H23.0023C24.9019 20.4815 27.9018 17.077 31.6547 14.6868C35.4077 12.2967 39.7603 11.0184 44.2091 11C50.2583 11.0555 56.0595 13.4136 60.4331 17.595C64.8068 21.7763 67.4246 27.4671 67.7546 33.5105H69.2454C73.1808 33.5754 76.933 35.185 79.6931 37.9923C82.4532 40.7996 84 44.5797 84 48.5174C84 52.4552 82.4532 56.2352 79.6931 59.0425C76.933 61.8498 73.1808 63.4594 69.2454 63.5244C64.4804 63.5056 18.9128 63.7845 19.1728 63.5244Z" fill="#4C63B6"/>
<path d="M43.7685 69.7561C43.4167 69.7561 43.0794 69.6032 42.8306 69.3311C42.5819 69.0591 42.4421 68.6901 42.4421 68.3053V51.6215C42.4421 51.2367 42.5819 50.8677 42.8306 50.5956C43.0794 50.3235 43.4167 50.1707 43.7685 50.1707C44.1202 50.1707 44.4575 50.3235 44.7063 50.5956C44.955 50.8677 45.0948 51.2367 45.0948 51.6215V68.3053C45.0948 68.6901 44.955 69.0591 44.7063 69.3311C44.4576 69.6032 44.1202 69.7561 43.7685 69.7561Z" fill="#2D3A8C"/>
<path d="M33.1565 79.5488C32.8051 79.5488 32.4681 79.389 32.2196 79.1045C31.9712 78.8201 31.8315 78.4343 31.8315 78.0321V60.5899C31.8315 60.1876 31.9712 59.8018 32.2196 59.5174C32.4681 59.233 32.8051 59.0732 33.1565 59.0732C33.508 59.0732 33.845 59.233 34.0934 59.5174C34.3419 59.8018 34.4815 60.1876 34.4815 60.5899V78.0321C34.4815 78.4343 34.3419 78.8201 34.0934 79.1045C33.845 79.389 33.5079 79.5488 33.1565 79.5488Z" fill="#2D3A8C"/>
<path d="M54.379 84C54.0273 84 53.69 83.8402 53.4412 83.5557C53.1925 83.2713 53.0527 82.8855 53.0527 82.4833V65.0411C53.0527 64.6388 53.1925 64.253 53.4412 63.9686C53.69 63.6842 54.0273 63.5244 54.379 63.5244C54.7308 63.5244 55.0681 63.6842 55.3169 63.9686C55.5656 64.253 55.7054 64.6388 55.7054 65.0411V82.4833C55.7053 82.8855 55.5656 83.2713 55.3169 83.5557C55.0681 83.8402 54.7308 84 54.379 84Z" fill="#2D3A8C"/>
</svg>
