<svg width="97" height="82" viewBox="0 0 97 82" fill="none" xmlns="http://www.w3.org/2000/svg">
<path d="M82.2454 52H32.1729C27.0583 51.9143 22.1824 49.8417 18.5961 46.2289C15.0097 42.6161 13 37.7523 13 32.6857C13 27.6191 15.0097 22.7553 18.5961 19.1425C22.1824 15.5297 27.0583 13.4571 32.1729 13.3714H36.0023C37.9019 9.38682 40.9017 6.01636 44.6547 3.65004C48.4076 1.28371 52.7603 0.0182354 57.2091 0C63.2584 0.0549054 69.0595 2.38947 73.4331 6.52911C77.8068 10.6687 80.4246 16.3027 80.7546 22.2857H82.2454C86.1808 22.35 89.933 23.9436 92.6931 26.7228C95.4532 29.5021 97 33.2444 97 37.1429C97 41.0413 95.4532 44.7836 92.6931 47.5629C89.933 50.3422 86.1808 51.9357 82.2454 52ZM32.1729 16.3429C27.8541 16.4286 23.7414 18.1881 20.7177 21.2437C17.694 24.2992 16.0004 28.4072 16.0004 32.6857C16.0004 36.9642 17.694 41.0722 20.7177 44.1278C23.7414 47.1833 27.8541 48.9428 32.1729 49.0286H82.2454C85.385 48.9643 88.3741 47.6838 90.5716 45.4618C92.7691 43.2398 93.9998 40.2533 93.9998 37.1429C93.9998 34.0325 92.7691 31.0459 90.5716 28.8239C88.3741 26.6019 85.385 25.3214 82.2454 25.2571H79.3C78.9022 25.2571 78.5206 25.1006 78.2393 24.822C77.958 24.5433 77.8 24.1655 77.8 23.7714C77.8475 18.3106 75.7064 13.0541 71.8463 9.15482C67.9862 5.25552 62.7223 3.0318 57.2091 2.97143C53.1776 2.99259 49.241 4.18576 45.888 6.40288C42.5349 8.62 39.9128 11.7635 38.3471 15.4433C38.2314 15.7103 38.039 15.9378 37.794 16.0977C37.549 16.2576 37.2621 16.3428 36.9687 16.3429H32.1729Z" fill="#2D3A8C"/>
<path d="M32.1729 16.3429C27.8541 16.4286 23.7414 18.1881 20.7177 21.2437C17.694 24.2992 16.0004 28.4072 16.0004 32.6857C16.0004 36.9642 17.694 41.0722 20.7177 44.1278C23.7414 47.1833 27.8541 48.9428 32.1729 49.0286H82.2454C85.385 48.9643 88.3741 47.6838 90.5716 45.4618C92.7691 43.2398 93.9998 40.2533 93.9998 37.1429C93.9998 34.0325 92.7691 31.0459 90.5716 28.8239C88.3741 26.6019 85.385 25.3214 82.2454 25.2571H79.3C78.9022 25.2571 78.5206 25.1006 78.2393 24.822C77.958 24.5433 77.8 24.1655 77.8 23.7714C77.8475 18.3106 75.7064 13.0541 71.8463 9.15482C67.9862 5.25552 62.7223 3.0318 57.2091 2.97143C53.1776 2.99259 49.241 4.18576 45.888 6.40288C42.5349 8.62 39.9128 11.7635 38.3471 15.4433C38.2314 15.7103 38.039 15.9378 37.794 16.0977C37.549 16.2576 37.2621 16.3428 36.9687 16.3429H32.1729Z" fill="#2D3A8C"/>
<path d="M69.2454 64H19.1729C14.0583 63.9143 9.18244 61.8417 5.59609 58.2289C2.00974 54.6161 0 49.7523 0 44.6857C0 39.6191 2.00974 34.7553 5.59609 31.1425C9.18244 27.5297 14.0583 25.4571 19.1729 25.3714H23.0023C24.9019 21.3868 27.9017 18.0164 31.6547 15.65C35.4076 13.2837 39.7603 12.0182 44.2091 12C50.2584 12.0549 56.0595 14.3895 60.4331 18.5291C64.8068 22.6687 67.4246 28.3027 67.7546 34.2857H69.2454C73.1808 34.35 76.933 35.9436 79.6931 38.7228C82.4532 41.5021 84 45.2444 84 49.1429C84 53.0413 82.4532 56.7836 79.6931 59.5629C76.933 62.3422 73.1808 63.9357 69.2454 64Z" fill="#4C63B6"/>
<path d="M34 50.5H42L36.5 61H43L28 82L32 66.5H25.5L34 50.5Z" fill="#DE911D"/>
</svg>
