<svg width="91" height="73" viewBox="0 0 91 73" fill="none" xmlns="http://www.w3.org/2000/svg">
<path d="M75.0159 56H25.8082H20.7706C15.2298 55.9077 9.9476 53.6757 6.06239 49.785C2.17718 45.8943 0 40.6563 0 35.2C0 29.7437 2.17718 24.5057 6.06239 20.615C9.9476 16.7243 15.2298 14.4923 20.7706 14.4H24.9191C26.977 10.1089 30.2269 6.47916 34.2926 3.93081C38.3583 1.38246 43.0737 0.0196381 47.8932 0C54.4465 0.0591289 60.7311 2.57327 65.4692 7.03135C70.2073 11.4894 73.0433 17.5568 73.4008 24H75.0159C79.2792 24.0692 83.3441 25.7854 86.3342 28.7784C89.3243 31.7715 91 35.8017 91 40C91 44.1983 89.3243 48.2285 86.3342 51.2216C83.3441 54.2146 79.2792 55.9308 75.0159 56Z" fill="#4C63B6"/>
<path d="M36.6138 52V55.0949M36.6138 64V61.2848M36.6138 58.1899L33.9207 56.462M36.6138 58.1899L33.9207 59.5M36.6138 58.1899V61.2848M36.6138 58.1899L39.3069 59.5M36.6138 58.1899L39.3069 56.6139M36.6138 58.1899V55.0949M42 54.8101L39.3069 56.6139M42 60.8101L39.3069 59.5M31.2276 60.8101L33.9207 59.5M31 54.8101L33.9207 56.462M33.9207 56.462L32.9724 53.8228M33.9207 56.462L31.2276 57.0886M33.9207 59.5L31.2276 58.6835M33.9207 59.5L33.2 61.8734M36.6138 61.2848L34.9448 63.0127M36.6138 61.2848L38.2828 63.0127M39.3069 59.5L40.4069 61.8734M39.3069 59.5L42 58.9114M39.3069 56.6139L40.4069 53.8228M39.3069 56.6139L42 56.8608M36.6138 55.0949L34.9448 53.2152M36.6138 55.0949L38.2828 53.2152" stroke="#2D3A8C" stroke-linecap="round"/>
<path d="M52.6138 60V63.0949M52.6138 72V69.2848M52.6138 66.1899L49.9207 64.462M52.6138 66.1899L49.9207 67.5M52.6138 66.1899V69.2848M52.6138 66.1899L55.3069 67.5M52.6138 66.1899L55.3069 64.6139M52.6138 66.1899V63.0949M58 62.8101L55.3069 64.6139M58 68.8101L55.3069 67.5M47.2276 68.8101L49.9207 67.5M47 62.8101L49.9207 64.462M49.9207 64.462L48.9724 61.8228M49.9207 64.462L47.2276 65.0886M49.9207 67.5L47.2276 66.6835M49.9207 67.5L49.2 69.8734M52.6138 69.2848L50.9448 71.0127M52.6138 69.2848L54.2828 71.0127M55.3069 67.5L56.4069 69.8734M55.3069 67.5L58 66.9114M55.3069 64.6139L56.4069 61.8228M55.3069 64.6139L58 64.8608M52.6138 63.0949L50.9448 61.2152M52.6138 63.0949L54.2828 61.2152" stroke="#2D3A8C" stroke-linecap="round"/>
<path d="M60.6138 48V51.0949M60.6138 60V57.2848M60.6138 54.1899L57.9207 52.462M60.6138 54.1899L57.9207 55.5M60.6138 54.1899V57.2848M60.6138 54.1899L63.3069 55.5M60.6138 54.1899L63.3069 52.6139M60.6138 54.1899V51.0949M66 50.8101L63.3069 52.6139M66 56.8101L63.3069 55.5M55.2276 56.8101L57.9207 55.5M55 50.8101L57.9207 52.462M57.9207 52.462L56.9724 49.8228M57.9207 52.462L55.2276 53.0886M57.9207 55.5L55.2276 54.6835M57.9207 55.5L57.2 57.8734M60.6138 57.2848L58.9448 59.0127M60.6138 57.2848L62.2828 59.0127M63.3069 55.5L64.4069 57.8734M63.3069 55.5L66 54.9114M63.3069 52.6139L64.4069 49.8228M63.3069 52.6139L66 52.8608M60.6138 51.0949L58.9448 49.2152M60.6138 51.0949L62.2828 49.2152" stroke="#2D3A8C" stroke-linecap="round"/>
<path d="M44.6138 40V43.0949M44.6138 52V49.2848M44.6138 46.1899L41.9207 44.462M44.6138 46.1899L41.9207 47.5M44.6138 46.1899V49.2848M44.6138 46.1899L47.3069 47.5M44.6138 46.1899L47.3069 44.6139M44.6138 46.1899V43.0949M50 42.8101L47.3069 44.6139M50 48.8101L47.3069 47.5M39.2276 48.8101L41.9207 47.5M39 42.8101L41.9207 44.462M41.9207 44.462L40.9724 41.8228M41.9207 44.462L39.2276 45.0886M41.9207 47.5L39.2276 46.6835M41.9207 47.5L41.2 49.8734M44.6138 49.2848L42.9448 51.0127M44.6138 49.2848L46.2828 51.0127M47.3069 47.5L48.4069 49.8734M47.3069 47.5L50 46.9114M47.3069 44.6139L48.4069 41.8228M47.3069 44.6139L50 44.8608M44.6138 43.0949L42.9448 41.2152M44.6138 43.0949L46.2828 41.2152" stroke="#2D3A8C" stroke-linecap="round"/>
</svg>
