<svg width="518" height="240" viewBox="0 0 518 240" fill="none" xmlns="http://www.w3.org/2000/svg">
<g clip-path="url(#clip0_11_98)">
<path d="M489.568 238.931C485.173 238.749 481.168 236.976 479.357 234.23C479.272 234.101 479.192 233.971 479.117 233.839C478.456 232.669 478.249 231.323 478.972 230.17C479.696 229.017 481.502 228.142 483.316 228.323C485.13 228.505 486.546 229.951 485.796 231.096C485.628 228.783 485.491 226.353 487.357 224.339C488.384 223.287 489.724 222.595 491.177 222.366C494.936 221.705 497.433 223.83 497.933 225.975C498.302 227.559 497.792 229.17 497.285 230.736C498.849 228.887 502.568 228.065 505.416 228.938C508.264 229.811 509.845 232.257 508.871 234.286C507.725 236.676 503.903 237.912 500.353 238.564C497.422 239.104 493.026 239.075 489.568 238.931Z" fill="#3EBD93"/>
<path d="M336.543 238.931C332.148 238.749 328.144 236.976 326.332 234.23C326.247 234.101 326.167 233.971 326.093 233.839C325.431 232.669 325.225 231.323 325.948 230.17C326.671 229.017 328.477 228.142 330.291 228.323C332.105 228.505 333.522 229.951 332.771 231.096C332.603 228.783 332.466 226.353 334.332 224.339C335.359 223.287 336.699 222.595 338.152 222.366C341.912 221.705 344.408 223.83 344.908 225.975C345.277 227.559 344.767 229.17 344.26 230.736C345.824 228.887 349.543 228.065 352.391 228.938C355.239 229.811 356.82 232.257 355.847 234.286C354.7 236.676 350.878 237.912 347.328 238.564C344.397 239.104 340.001 239.075 336.543 238.931Z" fill="#3EBD93"/>
<path d="M389.328 232.655H382.302L378.959 205.569L389.329 205.569L389.328 232.655Z" fill="#FFB8B8"/>
<path d="M391.12 239.462L368.464 239.462V239.175C368.464 238.018 368.692 236.872 369.135 235.803C369.579 234.733 370.228 233.762 371.047 232.943C371.866 232.125 372.838 231.476 373.908 231.033C374.978 230.59 376.124 230.362 377.283 230.362H377.283L391.121 230.363L391.12 239.462Z" fill="#2F2E41"/>
<path d="M467.821 226.085L461.198 228.429L448.999 204.013L458.774 200.553L467.821 226.085Z" fill="#FFB8B8"/>
<path d="M471.784 231.904L450.428 239.462L450.332 239.192C449.945 238.102 449.778 236.945 449.838 235.789C449.899 234.634 450.186 233.501 450.685 232.456C451.183 231.412 451.883 230.475 452.743 229.701C453.604 228.927 454.609 228.329 455.7 227.943L455.701 227.942L468.745 223.326L471.784 231.904Z" fill="#2F2E41"/>
<path d="M389.133 223.561C388.975 223.561 388.818 223.547 388.662 223.518L380.07 221.957C379.485 221.849 378.956 221.543 378.57 221.091C378.184 220.639 377.965 220.067 377.951 219.473C376.702 161.67 382.842 122.827 396.201 94.9847C396.439 94.492 396.828 94.0883 397.312 93.8325C397.796 93.5768 398.349 93.4825 398.89 93.5633L429.788 98.0215C430.352 98.1035 430.873 98.3697 431.27 98.7787C431.667 99.1877 431.917 99.7164 431.982 100.282L434.706 124.284C434.721 124.414 434.748 124.542 434.788 124.666L464.412 213.374C464.614 214.019 464.556 214.718 464.249 215.321C463.942 215.924 463.411 216.382 462.77 216.599L454.764 219.266C454.175 219.459 453.536 219.435 452.963 219.198C452.39 218.961 451.921 218.526 451.641 217.973L411.569 142.458C411.49 142.299 411.363 142.169 411.206 142.085C411.05 142.001 410.871 141.968 410.694 141.99C410.518 142.012 410.353 142.088 410.221 142.208C410.09 142.327 409.999 142.485 409.961 142.658L391.643 221.535C391.519 222.109 391.203 222.622 390.746 222.991C390.289 223.36 389.72 223.561 389.133 223.561Z" fill="#2F2E41"/>
<path d="M389.808 61.8858C389.883 61.5228 390.034 61.1802 390.253 60.8811C390.472 60.5821 390.752 60.3338 391.076 60.1531L402.374 53.8393C403.875 52.6812 405.774 52.1652 407.655 52.4046C409.536 52.6439 411.246 53.6191 412.409 55.1162C413.572 56.6133 414.093 58.5101 413.858 60.3908C413.624 62.2715 412.653 63.9824 411.158 65.1486L402.15 74.4973C401.893 74.764 401.581 74.9723 401.236 75.1079C400.891 75.2435 400.521 75.3032 400.151 75.2829C399.781 75.2626 399.42 75.1629 399.092 74.9905C398.764 74.8181 398.477 74.577 398.25 74.2838L390.293 63.977C390.067 63.6838 389.906 63.3452 389.822 62.9843C389.739 62.6234 389.734 62.2487 389.808 61.8858Z" fill="#4C63B6"/>
<path d="M416.118 46.7552C423.892 46.7552 430.195 40.4566 430.195 32.6868C430.195 24.9171 423.892 18.6185 416.118 18.6185C408.344 18.6185 402.042 24.9171 402.042 32.6868C402.042 40.4566 408.344 46.7552 416.118 46.7552Z" fill="#FFB8B8"/>
<path d="M429.825 101.022C429.685 101.022 429.546 101.011 429.408 100.988L398.944 95.9972C398.6 95.9408 398.271 95.8152 397.977 95.628C397.683 95.4409 397.429 95.196 397.233 94.9083C397.036 94.6206 396.899 94.2959 396.832 93.954C396.764 93.6121 396.766 93.26 396.839 92.919L398.321 85.9358C397.562 84.8048 391.385 74.9694 398.909 65.7309C398.764 62.4489 399.907 59.2403 402.095 56.788C404.282 54.3358 407.341 52.8337 410.62 52.6014L426.363 51.4061C428.388 51.2525 430.421 51.5873 432.289 52.3824C434.158 53.1774 435.809 54.4095 437.102 55.9748C438.395 57.5401 439.293 59.393 439.72 61.3774C440.147 63.3619 440.092 65.4199 439.557 67.3783L432.34 99.0178C432.209 99.5867 431.889 100.095 431.433 100.459C430.976 100.823 430.409 101.021 429.825 101.022V101.022Z" fill="#4C63B6"/>
<path d="M458.273 127.48C458.79 126.743 459.138 125.902 459.295 125.016C459.451 124.131 459.411 123.221 459.178 122.352C458.945 121.484 458.524 120.676 457.944 119.988C457.365 119.299 456.642 118.746 455.826 118.367L438.481 65.0704L428.429 69.8372L447.407 121.731C446.861 123.144 446.852 124.708 447.383 126.127C447.913 127.546 448.946 128.721 450.285 129.429C451.625 130.138 453.178 130.331 454.65 129.971C456.122 129.612 457.411 128.726 458.273 127.48V127.48Z" fill="#FFB8B8"/>
<path d="M442.317 73.9437L428.97 77.9733C428.59 78.0879 428.19 78.1194 427.797 78.0656C427.404 78.0118 427.027 77.874 426.692 77.6615C426.357 77.4491 426.072 77.167 425.856 76.8344C425.64 76.5019 425.498 76.1267 425.441 75.7345L423.414 61.9903C422.838 60.0449 423.056 57.9502 424.023 56.1658C424.989 54.3814 426.625 53.053 428.57 52.4719C430.515 51.8909 432.611 52.1046 434.399 53.0663C436.187 54.0279 437.52 55.659 438.106 57.6017L444.016 70.1264C444.185 70.485 444.275 70.8759 444.279 71.2724C444.284 71.6688 444.203 72.0616 444.041 72.4238C443.88 72.7861 443.643 73.1094 443.345 73.3716C443.048 73.6339 442.697 73.829 442.317 73.9437H442.317Z" fill="#4C63B6"/>
<path d="M402.435 33.2302C405.56 34.4205 408.962 34.6881 412.235 34.0012C415.507 33.3143 418.514 31.7017 420.896 29.3556C419.419 33.2543 419.832 49.7894 419.832 49.7894C419.832 49.7894 432.926 43.5765 434.703 42.49C445.195 36.0723 430.724 8.15519 418.686 12.5579C416.647 13.3036 414.944 14.1811 414.119 16.1882C412.322 13.9722 408.919 13.4916 406.302 14.6298C403.684 15.768 401.824 18.2347 400.823 20.9064C400.034 23.0624 399.726 25.3653 399.924 27.6527C400.121 29.9402 400.818 32.1566 401.966 34.1456L402.435 33.2302Z" fill="black"/>
<path d="M341.01 0H18.9132C13.8986 0.00491936 9.09082 1.99797 5.54498 5.54174C1.99914 9.08552 0.00492222 13.8905 0 18.9021V107.112C0.00492222 112.124 1.99914 116.929 5.54498 120.473C9.09082 124.016 13.8986 126.009 18.9132 126.014H341.01C346.025 126.009 350.832 124.016 354.378 120.473C357.924 116.929 359.918 112.124 359.923 107.112V18.9021C359.918 13.8905 357.924 9.08552 354.378 5.54174C350.832 1.99797 346.025 0.00491936 341.01 0ZM358.777 107.112C358.771 111.82 356.897 116.333 353.567 119.661C350.236 122.99 345.72 124.863 341.01 124.869H18.9132C14.2029 124.863 9.68734 122.99 6.3567 119.661C3.02606 116.333 1.15226 111.82 1.14625 107.112V18.9021C1.15226 14.1947 3.02606 9.6817 6.3567 6.353C9.68734 3.0243 14.2029 1.15159 18.9132 1.14558H341.01C345.72 1.15159 350.236 3.0243 353.567 6.353C356.897 9.6817 358.771 14.1947 358.777 18.9021V107.112Z" fill="#19216C"/>
<path d="M50.8649 83.3413C49.5047 83.3413 48.175 82.9382 47.044 82.1829C45.913 81.4276 45.0315 80.3541 44.511 79.0982C43.9904 77.8422 43.8542 76.4602 44.1196 75.1268C44.3849 73.7935 45.04 72.5688 46.0018 71.6075C46.9636 70.6462 48.1891 69.9916 49.5232 69.7264C50.8573 69.4612 52.2402 69.5973 53.4969 70.1175C54.7536 70.6378 55.8277 71.5187 56.5834 72.6491C57.3391 73.7794 57.7425 75.1084 57.7425 76.4678C57.7404 78.2901 57.0151 80.0372 55.7258 81.3258C54.4364 82.6144 52.6883 83.3392 50.8649 83.3413V83.3413ZM50.8649 70.7399C49.7314 70.7399 48.6233 71.0758 47.6808 71.7052C46.7383 72.3346 46.0037 73.2292 45.57 74.2758C45.1362 75.3225 45.0227 76.4742 45.2438 77.5853C45.465 78.6964 46.0108 79.717 46.8123 80.5181C47.6139 81.3191 48.6351 81.8647 49.7468 82.0857C50.8586 82.3067 52.011 82.1933 53.0582 81.7597C54.1055 81.3262 55.0006 80.592 55.6303 79.6501C56.2601 78.7081 56.5962 77.6007 56.5962 76.4678C56.5945 74.9492 55.9901 73.4933 54.9157 72.4194C53.8412 71.3456 52.3844 70.7416 50.8649 70.7399V70.7399Z" fill="#3F3D56"/>
<path d="M50.6392 67.8759C50.4872 67.8759 50.3414 67.8155 50.234 67.7081C50.1265 67.6007 50.0661 67.455 50.0661 67.3031V60.716C50.0661 60.5641 50.1265 60.4184 50.234 60.311C50.3414 60.2035 50.4872 60.1432 50.6392 60.1432C50.7912 60.1432 50.937 60.2035 51.0445 60.311C51.152 60.4184 51.2123 60.5641 51.2123 60.716V67.3031C51.2123 67.455 51.152 67.6007 51.0445 67.7081C50.937 67.8155 50.7912 67.8759 50.6392 67.8759Z" fill="#3F3D56"/>
<path d="M41.6949 76.8151H35.1039C34.9519 76.8151 34.8062 76.7548 34.6987 76.6474C34.5912 76.54 34.5308 76.3943 34.5308 76.2423C34.5308 76.0904 34.5912 75.9448 34.6987 75.8373C34.8062 75.7299 34.9519 75.6696 35.1039 75.6696H41.6949C41.8469 75.6696 41.9927 75.7299 42.1002 75.8373C42.2076 75.9448 42.268 76.0904 42.268 76.2423C42.268 76.3943 42.2076 76.54 42.1002 76.6474C41.9927 76.7548 41.8469 76.8151 41.6949 76.8151Z" fill="#3F3D56"/>
<path d="M364.713 48.1703C364.783 48.4794 364.829 48.7935 364.85 49.1098L389.47 63.3047L395.454 59.8617L401.834 68.2086L391.833 75.3327C391.025 75.9082 390.052 76.2063 389.06 76.1821C388.068 76.158 387.111 75.8129 386.332 75.1988L360.944 55.182C359.799 55.6059 358.551 55.6711 357.367 55.369C356.183 55.0669 355.12 54.4117 354.318 53.4907C353.516 52.5697 353.013 51.4265 352.877 50.2131C352.741 48.9997 352.978 47.7736 353.556 46.698C354.134 45.6224 355.026 44.7481 356.114 44.1916C357.201 43.635 358.432 43.4226 359.643 43.5824C360.854 43.7422 361.988 44.2668 362.894 45.0863C363.799 45.9059 364.434 46.9816 364.713 48.1703V48.1703Z" fill="#FFB8B8"/>
<path d="M65.7663 76.8151H59.1753C59.0233 76.8151 58.8775 76.7548 58.77 76.6474C58.6626 76.54 58.6022 76.3943 58.6022 76.2423C58.6022 76.0904 58.6626 75.9448 58.77 75.8373C58.8775 75.7299 59.0233 75.6696 59.1753 75.6696H65.7663C65.9183 75.6696 66.064 75.7299 66.1715 75.8373C66.279 75.9448 66.3394 76.0904 66.3394 76.2423C66.3394 76.3943 66.279 76.54 66.1715 76.6474C66.064 76.7548 65.9183 76.8151 65.7663 76.8151Z" fill="#3F3D56"/>
<path d="M58.9942 70.5522C58.8801 70.5522 58.7686 70.5181 58.674 70.4544C58.5794 70.3907 58.5059 70.3002 58.4631 70.1945C58.4202 70.0889 58.4099 69.9728 58.4334 69.8612C58.4569 69.7496 58.5133 69.6476 58.5951 69.5682L61.3553 66.8919C61.4644 66.7862 61.6111 66.728 61.763 66.7304C61.915 66.7327 62.0599 66.7952 62.1657 66.9042C62.2716 67.0133 62.3297 67.1599 62.3274 67.3118C62.3251 67.4637 62.2625 67.6084 62.1534 67.7142L59.3933 70.3905C59.2865 70.4944 59.1432 70.5524 58.9942 70.5522V70.5522Z" fill="#3F3D56"/>
<path d="M42.1626 70.5522C42.0135 70.5524 41.8703 70.4944 41.7635 70.3905L39.0034 67.7142C38.9493 67.6618 38.9062 67.5993 38.8763 67.5303C38.8465 67.4612 38.8305 67.387 38.8294 67.3118C38.8282 67.2366 38.8419 67.1619 38.8696 67.0919C38.8974 67.022 38.9386 66.9582 38.991 66.9042C39.0435 66.8503 39.106 66.8071 39.1751 66.7773C39.2442 66.7474 39.3185 66.7315 39.3937 66.7304C39.469 66.7292 39.5437 66.7429 39.6137 66.7706C39.6836 66.7983 39.7475 66.8396 39.8015 66.8919L42.5616 69.5682C42.6435 69.6476 42.6998 69.7496 42.7234 69.8612C42.7469 69.9728 42.7366 70.0889 42.6937 70.1945C42.6508 70.3002 42.5774 70.3907 42.4828 70.4544C42.3881 70.5181 42.2767 70.5522 42.1626 70.5522Z" fill="#3F3D56"/>
<path d="M39.9755 86.2052C39.8629 86.2052 39.7528 86.172 39.6589 86.1098C39.5651 86.0476 39.4916 85.9591 39.4477 85.8555C39.4039 85.7518 39.3915 85.6375 39.4123 85.5268C39.433 85.4162 39.4859 85.3141 39.5643 85.2333L42.3244 82.3926C42.4303 82.2836 42.5752 82.2211 42.7273 82.2189C42.8793 82.2166 43.0259 82.2749 43.135 82.3807C43.2441 82.4866 43.3066 82.6314 43.3088 82.7833C43.3111 82.9352 43.2528 83.0818 43.1469 83.1908L40.3868 86.0316C40.3334 86.0866 40.2694 86.1303 40.1988 86.1601C40.1282 86.19 40.0522 86.2053 39.9755 86.2052V86.2052Z" fill="#3F3D56"/>
<path d="M62.3275 86.7781C62.251 86.7782 62.1753 86.763 62.1048 86.7333C62.0344 86.7036 61.9706 86.66 61.9174 86.6052L58.5841 83.1917C58.5315 83.1379 58.4901 83.0742 58.4622 83.0044C58.4342 82.9346 58.4203 82.8599 58.4212 82.7847C58.4222 82.7095 58.4379 82.6352 58.4676 82.5661C58.4972 82.497 58.5402 82.4344 58.594 82.3819C58.6479 82.3293 58.7116 82.2879 58.7814 82.26C58.8513 82.2321 58.926 82.2182 59.0012 82.2191C59.0765 82.22 59.1508 82.2358 59.22 82.2654C59.2891 82.295 59.3518 82.338 59.4043 82.3918L62.7376 85.8053C62.8164 85.886 62.8696 85.988 62.8906 86.0988C62.9116 86.2095 62.8995 86.3239 62.8557 86.4278C62.8119 86.5316 62.7384 86.6203 62.6445 86.6826C62.5505 86.7449 62.4402 86.7781 62.3275 86.7781Z" fill="#3F3D56"/>
<path d="M50.6392 92.506C50.4872 92.506 50.3414 92.4456 50.234 92.3382C50.1265 92.2308 50.0661 92.0851 50.0661 91.9332V85.346C50.0661 85.1941 50.1265 85.0484 50.234 84.941C50.3414 84.8336 50.4872 84.7733 50.6392 84.7733C50.7912 84.7733 50.937 84.8336 51.0445 84.941C51.152 85.0484 51.2123 85.1941 51.2123 85.346V91.9332C51.2123 92.0851 51.152 92.2308 51.0445 92.3382C50.937 92.4456 50.7912 92.506 50.6392 92.506Z" fill="#3F3D56"/>
<path d="M125.608 87.3508H106.476C104.522 87.3178 102.659 86.5188 101.289 85.1259C99.9186 83.733 99.1507 81.8579 99.1507 79.9045C99.1507 77.9512 99.9186 76.076 101.289 74.6832C102.659 73.2903 104.522 72.4913 106.476 72.4582H107.94C108.665 70.922 109.812 69.6226 111.245 68.7103C112.679 67.798 114.343 67.3101 116.042 67.3031C118.354 67.3243 120.57 68.2243 122.241 69.8203C123.912 71.4163 124.913 73.5884 125.039 75.895H125.608C127.112 75.9198 128.546 76.5341 129.6 77.6056C130.655 78.6771 131.246 80.1199 131.246 81.6229C131.246 83.1259 130.655 84.5687 129.6 85.6402C128.546 86.7117 127.112 87.3261 125.608 87.3508V87.3508ZM106.476 73.6038C104.826 73.6369 103.255 74.3152 102.1 75.4932C100.944 76.6713 100.297 78.255 100.297 79.9045C100.297 81.5541 100.944 83.1378 102.1 84.3158C103.255 85.4938 104.826 86.1722 106.476 86.2053H125.608C126.808 86.1805 127.95 85.6868 128.79 84.8301C129.629 83.9735 130.1 82.8221 130.1 81.6229C130.1 80.4237 129.629 79.2723 128.79 78.4157C127.95 77.559 126.808 77.0654 125.608 77.0406H124.483C124.331 77.0406 124.185 76.9802 124.078 76.8728C123.97 76.7654 123.91 76.6197 123.91 76.4678C123.928 74.3625 123.11 72.3359 121.635 70.8326C120.16 69.3293 118.149 68.472 116.042 68.4487C114.502 68.4568 112.998 68.9168 111.717 69.7716C110.436 70.6264 109.434 71.8383 108.835 73.257C108.791 73.36 108.718 73.4477 108.624 73.5093C108.531 73.5709 108.421 73.6038 108.309 73.6038H106.476Z" fill="#3F3D56"/>
<path d="M189.516 76.5002L189.07 75.4452C189.937 75.079 190.7 74.5049 191.293 73.7739C191.885 73.0428 192.288 72.1771 192.467 71.2534C192.645 70.3297 192.593 69.3763 192.315 68.4774C192.037 67.5786 191.542 66.7619 190.874 66.0996C190.205 65.4373 189.384 64.9497 188.482 64.6798C187.58 64.41 186.626 64.3663 185.703 64.5525C184.781 64.7387 183.918 65.1491 183.192 65.7475C182.465 66.3459 181.898 67.1139 181.539 67.9836L180.479 67.5467C180.91 66.5031 181.591 65.5816 182.463 64.8636C183.334 64.1456 184.369 63.6531 185.476 63.4296C186.584 63.2062 187.729 63.2586 188.811 63.5824C189.893 63.9061 190.879 64.4912 191.681 65.2859C192.483 66.0807 193.077 67.0606 193.41 68.1391C193.744 69.2177 193.806 70.3617 193.592 71.4701C193.378 72.5786 192.895 73.6173 192.184 74.4946C191.473 75.3718 190.557 76.0606 189.516 76.5002V76.5002Z" fill="#3F3D56"/>
<path d="M190.372 87.3508H171.24C169.285 87.3178 167.422 86.5188 166.052 85.1259C164.682 83.733 163.914 81.8579 163.914 79.9045C163.914 77.9512 164.682 76.076 166.052 74.6832C167.422 73.2903 169.285 72.4913 171.24 72.4582H172.703C173.429 70.922 174.575 69.6226 176.009 68.7103C177.443 67.798 179.106 67.3101 180.806 67.3031C183.117 67.3243 185.334 68.2243 187.005 69.8203C188.676 71.4163 189.676 73.5884 189.802 75.895H190.372C191.875 75.9198 193.309 76.5341 194.364 77.6056C195.418 78.6771 196.009 80.1199 196.009 81.6229C196.009 83.1259 195.418 84.5687 194.364 85.6402C193.309 86.7117 191.875 87.3261 190.372 87.3508V87.3508ZM171.24 73.6038C169.59 73.6369 168.018 74.3152 166.863 75.4932C165.708 76.6713 165.06 78.255 165.06 79.9045C165.06 81.5541 165.708 83.1378 166.863 84.3158C168.018 85.4938 169.59 86.1722 171.24 86.2053H190.372C191.571 86.1805 192.713 85.6868 193.553 84.8301C194.393 83.9735 194.863 82.8221 194.863 81.6229C194.863 80.4237 194.393 79.2723 193.553 78.4157C192.713 77.559 191.571 77.0654 190.372 77.0406H189.246C189.094 77.0406 188.948 76.9802 188.841 76.8728C188.734 76.7654 188.673 76.6197 188.673 76.4678C188.691 74.3625 187.873 72.3359 186.398 70.8326C184.923 69.3293 182.912 68.472 180.806 68.4487C179.265 68.4568 177.761 68.9168 176.48 69.7716C175.199 70.6264 174.197 71.8383 173.599 73.257C173.555 73.36 173.481 73.4477 173.387 73.5093C173.294 73.5709 173.184 73.6038 173.072 73.6038H171.24Z" fill="#3F3D56"/>
<path d="M255.135 84.4869H252.834C252.682 84.4869 252.537 84.4265 252.429 84.3191C252.322 84.2117 252.261 84.066 252.261 83.9141C252.261 83.7622 252.322 83.6165 252.429 83.5091C252.537 83.4016 252.682 83.3413 252.834 83.3413H255.135C256.334 83.3165 257.477 82.8228 258.316 81.9662C259.156 81.1095 259.626 79.9581 259.626 78.759C259.626 77.5598 259.156 76.4084 258.316 75.5517C257.477 74.6951 256.334 74.2014 255.135 74.1766H254.009C253.857 74.1766 253.712 74.1163 253.604 74.0088C253.497 73.9014 253.436 73.7557 253.436 73.6038C253.455 71.4985 252.636 69.4719 251.162 67.9686C249.687 66.4653 247.675 65.608 245.569 65.5847C244.028 65.5929 242.524 66.0529 241.243 66.9077C239.962 67.7624 238.96 68.9744 238.362 70.3931C238.318 70.496 238.244 70.5837 238.151 70.6453C238.057 70.707 237.947 70.7399 237.835 70.7399H236.003C234.353 70.7729 232.781 71.4513 231.626 72.6293C230.471 73.8073 229.824 75.3911 229.824 77.0406C229.824 78.6901 230.471 80.2739 231.626 81.4519C232.781 82.6299 234.353 83.3082 236.003 83.3413H237.78C237.932 83.3413 238.077 83.4016 238.185 83.5091C238.292 83.6165 238.353 83.7622 238.353 83.9141C238.353 84.066 238.292 84.2117 238.185 84.3191C238.077 84.4265 237.932 84.4869 237.78 84.4869H236.003C234.049 84.4538 232.186 83.6548 230.815 82.2619C229.445 80.8691 228.677 78.9939 228.677 77.0406C228.677 75.0872 229.445 73.2121 230.815 71.8192C232.186 70.4264 234.049 69.6273 236.003 69.5943H237.466C238.192 68.0581 239.338 66.7587 240.772 65.8464C242.206 64.9341 243.869 64.4462 245.569 64.4391C247.88 64.4603 250.097 65.3604 251.768 66.9563C253.439 68.5523 254.439 70.7244 254.565 73.031H255.135C256.639 73.0558 258.072 73.6702 259.127 74.7417C260.181 75.8132 260.772 77.256 260.772 78.759C260.772 80.2619 260.181 81.7047 259.127 82.7762C258.072 83.8477 256.639 84.4621 255.135 84.4869V84.4869Z" fill="#3F3D56"/>
<path d="M245.474 86.9596C245.322 86.9596 245.176 86.8992 245.069 86.7918C244.961 86.6844 244.901 86.5387 244.901 86.3868V79.7997C244.901 79.6477 244.961 79.502 245.069 79.3946C245.176 79.2872 245.322 79.2269 245.474 79.2269C245.626 79.2269 245.772 79.2872 245.879 79.3946C245.987 79.502 246.047 79.6477 246.047 79.7997V86.3868C246.047 86.5387 245.987 86.6844 245.879 86.7918C245.772 86.8992 245.626 86.9596 245.474 86.9596V86.9596Z" fill="#3F3D56"/>
<path d="M241.462 90.3963C241.31 90.3963 241.164 90.336 241.057 90.2286C240.949 90.1211 240.889 89.9755 240.889 89.8235V83.2364C240.889 83.0845 240.949 82.9388 241.057 82.8314C241.164 82.724 241.31 82.6636 241.462 82.6636C241.614 82.6636 241.76 82.724 241.867 82.8314C241.975 82.9388 242.035 83.0845 242.035 83.2364V89.8235C242.035 89.9755 241.975 90.1211 241.867 90.2286C241.76 90.336 241.614 90.3963 241.462 90.3963Z" fill="#3F3D56"/>
<path d="M249.486 92.1147C249.334 92.1147 249.188 92.0544 249.081 91.9469C248.973 91.8395 248.913 91.6938 248.913 91.5419V84.9548C248.913 84.8029 248.973 84.6572 249.081 84.5498C249.188 84.4424 249.334 84.382 249.486 84.382C249.638 84.382 249.784 84.4424 249.891 84.5498C249.999 84.6572 250.059 84.8029 250.059 84.9548V91.5419C250.059 91.6938 249.999 91.8395 249.891 91.9469C249.784 92.0544 249.638 92.1147 249.486 92.1147V92.1147Z" fill="#3F3D56"/>
<path d="M319.898 84.4869H317.598C317.446 84.4869 317.3 84.4265 317.192 84.3191C317.085 84.2117 317.025 84.066 317.025 83.9141C317.025 83.7622 317.085 83.6165 317.192 83.5091C317.3 83.4016 317.446 83.3413 317.598 83.3413H319.898C321.098 83.3165 322.24 82.8228 323.079 81.9662C323.919 81.1095 324.389 79.9581 324.389 78.759C324.389 77.5598 323.919 76.4084 323.079 75.5517C322.24 74.6951 321.098 74.2014 319.898 74.1766H318.773C318.621 74.1766 318.475 74.1163 318.368 74.0088C318.26 73.9014 318.2 73.7557 318.2 73.6038C318.218 71.4985 317.4 69.4719 315.925 67.9686C314.45 66.4653 312.439 65.608 310.332 65.5847C308.792 65.5929 307.288 66.0529 306.006 66.9077C304.725 67.7624 303.723 68.9744 303.125 70.3931C303.081 70.496 303.008 70.5837 302.914 70.6453C302.82 70.707 302.711 70.7399 302.599 70.7399H300.766C299.116 70.7729 297.545 71.4513 296.389 72.6293C295.234 73.8073 294.587 75.3911 294.587 77.0406C294.587 78.6901 295.234 80.2739 296.389 81.4519C297.545 82.6299 299.116 83.3082 300.766 83.3413H302.543C302.695 83.3413 302.841 83.4016 302.948 83.5091C303.056 83.6165 303.116 83.7622 303.116 83.9141C303.116 84.066 303.056 84.2117 302.948 84.3191C302.841 84.4265 302.695 84.4869 302.543 84.4869H300.766C298.812 84.4538 296.949 83.6548 295.579 82.2619C294.208 80.8691 293.44 78.9939 293.44 77.0406C293.44 75.0872 294.208 73.2121 295.579 71.8192C296.949 70.4264 298.812 69.6273 300.766 69.5943H302.229C302.955 68.0581 304.101 66.7587 305.535 65.8464C306.969 64.9341 308.632 64.4462 310.332 64.4391C312.643 64.4603 314.86 65.3604 316.531 66.9563C318.202 68.5523 319.202 70.7244 319.329 73.031H319.898C321.402 73.0558 322.835 73.6702 323.89 74.7417C324.945 75.8132 325.536 77.256 325.536 78.759C325.536 80.2619 324.945 81.7047 323.89 82.7762C322.835 83.8477 321.402 84.4621 319.898 84.4869V84.4869Z" fill="#3F3D56"/>
<path d="M309.345 83.0549C310.057 83.0549 310.634 82.4779 310.634 81.7661C310.634 81.0543 310.057 80.4773 309.345 80.4773C308.633 80.4773 308.055 81.0543 308.055 81.7661C308.055 82.4779 308.633 83.0549 309.345 83.0549Z" fill="#3F3D56"/>
<path d="M313.643 84.7732C314.355 84.7732 314.933 84.1962 314.933 83.4845C314.933 82.7727 314.355 82.1957 313.643 82.1957C312.931 82.1957 312.354 82.7727 312.354 83.4845C312.354 84.1962 312.931 84.7732 313.643 84.7732Z" fill="#3F3D56"/>
<path d="M306.479 86.7781C307.191 86.7781 307.769 86.2011 307.769 85.4893C307.769 84.7775 307.191 84.2005 306.479 84.2005C305.767 84.2005 305.19 84.7775 305.19 85.4893C305.19 86.2011 305.767 86.7781 306.479 86.7781Z" fill="#3F3D56"/>
<path d="M311.064 89.642C311.776 89.642 312.354 89.065 312.354 88.3532C312.354 87.6415 311.776 87.0645 311.064 87.0645C310.352 87.0645 309.775 87.6415 309.775 88.3532C309.775 89.065 310.352 89.642 311.064 89.642Z" fill="#3F3D56"/>
<path d="M67.0558 40.9547H33.8144C32.5984 40.9547 31.4322 40.4719 30.5724 39.6125C29.7125 38.7532 29.2294 37.5876 29.2294 36.3723C29.2294 35.157 29.7125 33.9915 30.5724 33.1321C31.4322 32.2728 32.5984 31.79 33.8144 31.79H67.0558C68.2718 31.79 69.438 32.2728 70.2979 33.1321C71.1577 33.9915 71.6408 35.157 71.6408 36.3723C71.6408 37.5876 71.1577 38.7532 70.2979 39.6125C69.438 40.4719 68.2718 40.9547 67.0558 40.9547Z" fill="#4C63B6"/>
<path d="M131.819 40.9547H98.5777C97.3617 40.9547 96.1955 40.4719 95.3357 39.6125C94.4758 38.7532 93.9927 37.5876 93.9927 36.3723C93.9927 35.157 94.4758 33.9915 95.3357 33.1321C96.1955 32.2728 97.3617 31.79 98.5777 31.79H131.819C133.035 31.79 134.201 32.2728 135.061 33.1321C135.921 33.9915 136.404 35.157 136.404 36.3723C136.404 37.5876 135.921 38.7532 135.061 39.6125C134.201 40.4719 133.035 40.9547 131.819 40.9547Z" fill="#4C63B6"/>
<path d="M196.582 40.9547H163.341C162.125 40.9547 160.959 40.4719 160.099 39.6125C159.239 38.7532 158.756 37.5876 158.756 36.3723C158.756 35.157 159.239 33.9915 160.099 33.1321C160.959 32.2728 162.125 31.79 163.341 31.79H196.582C197.798 31.79 198.965 32.2728 199.824 33.1321C200.684 33.9915 201.167 35.157 201.167 36.3723C201.167 37.5876 200.684 38.7532 199.824 39.6125C198.965 40.4719 197.798 40.9547 196.582 40.9547Z" fill="#4C63B6"/>
<path d="M261.346 40.9547H228.104C226.888 40.9547 225.722 40.4719 224.862 39.6125C224.002 38.7532 223.519 37.5876 223.519 36.3723C223.519 35.157 224.002 33.9915 224.862 33.1321C225.722 32.2728 226.888 31.79 228.104 31.79H261.346C262.562 31.79 263.728 32.2728 264.588 33.1321C265.447 33.9915 265.931 35.157 265.931 36.3723C265.931 37.5876 265.447 38.7532 264.588 39.6125C263.728 40.4719 262.562 40.9547 261.346 40.9547Z" fill="#4C63B6"/>
<path d="M326.109 40.9547H292.867C291.651 40.9547 290.485 40.4719 289.625 39.6125C288.766 38.7532 288.282 37.5876 288.282 36.3723C288.282 35.157 288.766 33.9915 289.625 33.1321C290.485 32.2728 291.651 31.79 292.867 31.79H326.109C327.325 31.79 328.491 32.2728 329.351 33.1321C330.211 33.9915 330.694 35.157 330.694 36.3723C330.694 37.5876 330.211 38.7532 329.351 39.6125C328.491 40.4719 327.325 40.9547 326.109 40.9547Z" fill="#4C63B6"/>
<path d="M81.3839 94.7971C81.2319 94.7971 81.0861 94.7368 80.9786 94.6294C80.8712 94.5219 80.8108 94.3762 80.8108 94.2243V50.6921C80.8108 50.5402 80.8712 50.3945 80.9786 50.2871C81.0861 50.1797 81.2319 50.1193 81.3839 50.1193C81.5359 50.1193 81.6817 50.1797 81.7892 50.2871C81.8967 50.3945 81.957 50.5402 81.957 50.6921V94.2243C81.957 94.3762 81.8967 94.5219 81.7892 94.6294C81.6817 94.7368 81.5359 94.7971 81.3839 94.7971Z" fill="#E4E7EB"/>
<path d="M146.147 94.2243C145.995 94.2243 145.849 94.164 145.742 94.0565C145.634 93.9491 145.574 93.8034 145.574 93.6515V50.1193C145.574 49.9674 145.634 49.8217 145.742 49.7143C145.849 49.6069 145.995 49.5465 146.147 49.5465C146.299 49.5465 146.445 49.6069 146.552 49.7143C146.66 49.8217 146.72 49.9674 146.72 50.1193V93.6515C146.72 93.8034 146.66 93.9491 146.552 94.0565C146.445 94.164 146.299 94.2243 146.147 94.2243Z" fill="#E4E7EB"/>
<path d="M214.349 94.2243C214.197 94.2243 214.051 94.164 213.944 94.0565C213.836 93.9491 213.776 93.8034 213.776 93.6515V50.1193C213.776 49.9674 213.836 49.8217 213.944 49.7143C214.051 49.6069 214.197 49.5465 214.349 49.5465C214.501 49.5465 214.647 49.6069 214.754 49.7143C214.862 49.8217 214.922 49.9674 214.922 50.1193V93.6515C214.922 93.8034 214.862 93.9491 214.754 94.0565C214.647 94.164 214.501 94.2243 214.349 94.2243Z" fill="#E4E7EB"/>
<path d="M279.112 94.2243C278.96 94.2243 278.815 94.164 278.707 94.0565C278.6 93.9491 278.539 93.8034 278.539 93.6515V50.1193C278.539 49.9674 278.6 49.8217 278.707 49.7143C278.815 49.6069 278.96 49.5465 279.112 49.5465C279.264 49.5465 279.41 49.6069 279.518 49.7143C279.625 49.8217 279.686 49.9674 279.686 50.1193V93.6515C279.686 93.8034 279.625 93.9491 279.518 94.0565C279.41 94.164 279.264 94.2243 279.112 94.2243Z" fill="#E4E7EB"/>
<path d="M517.427 240H299.066C298.914 240 298.768 239.94 298.661 239.832C298.553 239.725 298.493 239.579 298.493 239.427C298.493 239.275 298.553 239.13 298.661 239.022C298.768 238.915 298.914 238.854 299.066 238.854H517.427C517.579 238.854 517.725 238.915 517.832 239.022C517.94 239.13 518 239.275 518 239.427C518 239.579 517.94 239.725 517.832 239.832C517.725 239.94 517.579 240 517.427 240Z" fill="#19216C"/>
</g>
<defs>
<clipPath id="clip0_11_98">
<rect width="518" height="240" fill="white"/>
</clipPath>
</defs>
</svg>
