<svg width="25" height="25" viewBox="0 0 25 25" fill="none" xmlns="http://www.w3.org/2000/svg">
<path fill-rule="evenodd" clip-rule="evenodd" d="M6.31252 5.06249C7.95355 3.42146 10.1793 2.49954 12.5 2.49954C14.8208 2.49954 17.0465 3.42146 18.6875 5.06249C20.3285 6.70352 21.2505 8.92923 21.2505 11.25C21.2505 13.5708 20.3285 15.7965 18.6875 17.4375L12.5 23.625L6.31252 17.4375C5.49991 16.625 4.85531 15.6603 4.41553 14.5987C3.97574 13.537 3.74939 12.3991 3.74939 11.25C3.74939 10.1008 3.97574 8.96296 4.41553 7.9013C4.85531 6.83965 5.49991 5.87501 6.31252 5.06249ZM12.5 13.75C13.1631 13.75 13.7989 13.4866 14.2678 13.0178C14.7366 12.5489 15 11.913 15 11.25C15 10.5869 14.7366 9.95106 14.2678 9.48222C13.7989 9.01338 13.1631 8.74999 12.5 8.74999C11.837 8.74999 11.2011 9.01338 10.7323 9.48222C10.2634 9.95106 10 10.5869 10 11.25C10 11.913 10.2634 12.5489 10.7323 13.0178C11.2011 13.4866 11.837 13.75 12.5 13.75Z" fill="#4C63B6"/>
</svg>
