<svg width="145" height="145" viewBox="0 0 145 145" fill="none" xmlns="http://www.w3.org/2000/svg">
<circle cx="72.5" cy="72.5" r="72.5" fill="#BED0F7"/>
<path d="M104.356 70L75 40.8479C76.3991 37.4501 78.612 34.4498 81.4431 32.1119C84.2742 29.774 87.6364 28.1705 91.2328 27.4429C94.8293 26.7154 98.5493 26.8862 102.064 27.9403C105.579 28.9945 108.781 30.8994 111.386 33.487C113.992 36.0746 115.922 39.2652 117.005 42.7769C118.087 46.2886 118.291 50.0135 117.596 53.6224C116.901 57.2314 115.329 60.6134 113.02 63.4697C110.711 66.3261 107.736 68.5689 104.356 70Z" fill="#F7C948"/>
<path d="M106.732 105H44.7378C38.4055 104.893 32.3687 102.302 27.9285 97.7862C23.4883 93.2702 21 87.1904 21 80.8571C21 74.5239 23.4883 68.4441 27.9285 63.9281C32.3687 59.4121 38.4055 56.8214 44.7378 56.7143H49.479C51.831 51.7335 55.545 47.5205 60.1915 44.5625C64.838 41.6046 70.2271 40.0228 75.7351 40C83.2246 40.0686 90.407 42.9868 95.822 48.1614C101.237 53.3359 104.478 60.3784 104.887 67.8571H106.732C111.605 67.9375 116.25 69.9294 119.668 73.4035C123.085 76.8776 125 81.5555 125 86.4286C125 91.3016 123.085 95.9795 119.668 99.4536C116.25 102.928 111.605 104.92 106.732 105Z" fill="#4C63B6"/>
</svg>
